<?xml version="1.0" encoding="utf-8"?>
<!-- Generator: Adobe Illustrator 23.0.3, SVG Export Plug-In . SVG Version: 6.00 Build 0)  -->
<svg version="1.1" id="Layer_1" xmlns="http://www.w3.org/2000/svg" xmlns:xlink="http://www.w3.org/1999/xlink" x="0px" y="0px"
	 viewBox="0 0 595.3 595.3" style="enable-background:new 0 0 595.3 595.3;" xml:space="preserve">
<style type="text/css">
	.st0{opacity:0.11;fill:#F5E304;}
	.st1{fill:#70B2A2;}
	.st2{fill:#FFD2BB;}
	.st3{fill:#FF7E6F;}
	.st4{fill:#F5E304;}
	.st5{fill:#1C2B30;}
</style>
<path class="st0" d="M456.2,264.8c20.5,85.8-6.1,163.3-62.7,205.8c-56.2,42.2-142.4,49.4-197.1,10.6
	c-54.7-39.1-77.8-124.6-54.7-213.8c22.8-89.2,91.5-182.7,159.5-182.7C369.2,85.2,436,179,456.2,264.8z"/>
<path id="color_x5F_6" class="st1" d="M403.5,258.8h-21.3c0.5-3,0.9-5.3,1.1-6.4h19.6C403,253.5,403.2,255.7,403.5,258.8z
	 M398.3,451.2h10.4l-16-83.2C371.9,406.6,395,446,398.3,451.2z M423.5,404.7L423.5,404.7c5.6,20.5,2.2,41.1,1.1,46.5h9.3l11.6-84.2
	C439.9,370.5,421.8,383.4,423.5,404.7z M415.5,390.2c-11.8-20.9-18.8-23.7-21.2-24l16.4,85.1h11.9
	C423.8,445.5,429.3,414.6,415.5,390.2z M456.4,400.2c-0.4-23.3-6.2-31.1-8.7-33.3L436,451.2h12.7
	C450.2,447.2,456.8,427.4,456.4,400.2z M247.6,395.1c3.2-1.8,5.5-3.2,6.4-3.8c-0.2-11.9-5.2-19.2-6.9-21.3c-1.1,0.6-3.4,1.9-6.3,3.1
	c-0.2,0.1-0.1,0.1-0.1,0.1L247.6,395.1z M276.9,272.3l-0.1-1.2c1,0,4.6,0.3,10.7,2.7c-1.9,2.5-7.9,10.4-9.6,12.6
	c-1.2,1.5-2.4,2.3-3.6,2.1c-2.3-0.2-4.5-3.5-5.6-5.4C277.7,279.5,276.9,272.3,276.9,272.3z M262.4,184.3c9.3-5.4,27.5-4.5,33.5-4
	c-2.6-4-11-14-30.2-14l-0.4,0c-23,0.2-37.3,5.2-43.9,15.6c-3.8,6-6.7,17.6-7.1,30.2c6.2-1.5,27.7-4.3,35.9-5.4
	C250.6,203.3,252.5,190,262.4,184.3z M251.9,290.3c2.8-0.9,5-3.7,6.1-5.4c-6.1-0.3-10.7-3.1-13.6-5.7c-1.6-1.4-2.9-2.9-3.8-4.1
	l-7.6,4.5c2.3,2.1,8.3,7.2,14.1,10.3C248.8,290.6,250.4,290.8,251.9,290.3z"/>
<path id="color_x5F_4" class="st1" d="M383.3,244.7h-29.1v-79h43.1v29.6h24.5v-29.6h34.4v79h-19.6c-3.2-1.9-17.8-2.3-28-2.4
	c0.1,0,0.2-0.1,0.3-0.1c1.4-0.5,3-1.1,3.6-2.5c0.3-0.8,0.3-1.7-0.2-2.7c-0.3-0.6-0.9-1-1.9-1.4c-4.5-1.4-19.2-0.6-24.2,2.4
	C385,238.9,383.9,241.7,383.3,244.7z M415.8,144.1l-28.8-0.1l-30.3,19.7h41.3L415.8,144.1z M231.3,230.7c-1.9-2.2-2.7-5.4-2.2-9.6
	c0.7-5.6,4.1-6.5,6.1-6.5c3.2,0,6.5,2,6.6,2.1l0.4,0.3l0,0.5c0.3,3.1,1.3,6.5,2.4,6.5c0.2,0,0.9-0.2,2-1.6c2.6-3.2,2.2-6.7,1.9-9.6
	c-0.1-1.3-0.3-2.7,0-3.8c-12.8,1.7-30.8,4.2-34.5,5.2c-0.1,12.7,2.5,26.2,9.6,35.6c4.8,6.4,11.2,8,13.7,8.4l-0.7-24.6
	C235.5,233.3,233.2,232.7,231.3,230.7z M166.4,175.4l18.1,9.6c0.7,0.4,1.5,0.3,1.7-0.1c0.1-0.2,0-0.5,0-0.6
	c-0.2-0.3-0.5-0.6-0.8-0.8l-18.1-9.6c-0.3-0.2-0.6-0.2-0.9-0.2c-0.4,0-0.6,0.1-0.7,0.3c-0.1,0.2,0,0.5,0,0.6
	C165.8,174.9,166.1,175.2,166.4,175.4z M156.7,199.4l20.4,2.1c0.8,0.1,1.5-0.3,1.5-0.7c0-0.2-0.2-0.4-0.3-0.5
	c-0.3-0.2-0.7-0.4-1.1-0.5l-20.4-2.1c-0.1,0-0.2,0-0.2,0c-0.7,0-1.3,0.4-1.3,0.7c0,0.2,0.2,0.4,0.3,0.5
	C155.9,199.2,156.3,199.4,156.7,199.4z M195.2,171.4c0.4,0.4,0.8,0.6,1.2,0.6c0.1,0,0.3,0,0.4-0.1c0.1-0.1,0.1-0.3,0.1-0.4
	c0-0.4-0.2-0.9-0.6-1.2L182,155.7c-0.4-0.4-0.8-0.6-1.2-0.6c-0.1,0-0.3,0-0.4,0.1c-0.3,0.3-0.2,1,0.4,1.6L195.2,171.4z M456.9,163.7
	l19.9-19.3l-38.7-0.2L423,163.7L456.9,163.7L456.9,163.7z M458.3,243.3l20.8-26.8l0.6-72.3l-21.4,20.8V243.3z"/>
<path id="color_x5F_5" class="st2" d="M399.4,165.7h20.5v27.6h-20.5V165.7z M420.5,163.7l15.2-19.5l-17.2-0.1l-17.8,19.6H420.5
	L420.5,163.7z M435.6,246.3c-1.4-1.2-15.9-1.9-29.1-1.9l-0.7,0l-0.3-0.6c-0.3-0.7-0.2-1.2,0-1.5c0.4-1,1.6-1.4,2.8-1.8
	c1-0.3,2.2-0.8,2.4-1.4c0.1-0.3,0.1-0.6-0.2-1.1c-1.3-1.4-17.9-1.3-23.3,2c-1.1,0.7-2.8,6.7-2.6,10.5h18.9c0.2,0,16.9-0.1,25.6-1.2
	c4.1-0.5,6.7-1,7.7-1.3c-0.1-0.1-0.2-0.1-0.2-0.2C436.4,247.2,436,246.8,435.6,246.3z M240.8,269.4c0.2,1.3,0.3,2.1,0.3,2.5
	c0.5,1.5,7.8,12.6,21.2,10.8c13.4-1.8,12.7-9.9,12.7-10.2l-0.7-14.5c-2,0.3-4.2,0.6-6.5,0.7l-11.5,0v-2h11.5
	c11.6-0.6,20.2-4.3,25.7-11c9.6-11.9,6.6-30,5.6-36c0-0.2-0.1-0.4-0.1-0.6c-0.3,0.1-0.5,0.2-0.8,0.4l-0.2,0.1l-0.2,0
	c-0.3,0-33.4-1.1-43.6-1.1c-1.5,0-2.2,0-2.5,0l-0.3,0c-0.8,0.3-0.9,1.2-0.6,4c0.3,3,0.7,7.2-2.4,11c-1.2,1.6-2.4,2.3-3.6,2.3
	c-3.2,0-4.1-5.7-4.4-7.8c-0.9-0.5-3.1-1.5-5.1-1.5c-2.4,0-3.8,1.5-4.2,4.7c-0.4,3.6,0.1,6.3,1.7,8c1.9,2.1,4.7,2.2,5,2.2h1l0.1,1
	l0.7,26.6C240,263.9,240.5,267.3,240.8,269.4z M281.4,375.9c0.2-0.8,0.4-1.9,0.7-3.2c1-4.5,2.9-12.8,1.3-14.6
	c-0.1-0.2-0.4-0.3-0.9-0.3c-2.4,0.3-6.2,4-9.2,6.9c-3.8,3.7-6.5,6.3-8.4,5.1c-1.8-1.1-0.4-3.5,0.8-5.8c0.6-1,1.8-3.2,1.5-3.7
	c0,0,0,0-0.1-0.1c-1.6-0.5-9.4,5.6-16,11.9c1.7,3,3.7,7.6,4.6,13.8C266.3,383.5,280.8,378.9,281.4,375.9z"/>
<path id="color_x5F_3" class="st3" d="M297.5,182.4c1.3,0.5,13.9,5.8,14.1,12.7c0.1,4.2-4.8,8.5-14,12.5c-2.9-0.1-33.7-1.1-43.4-1.1
	c-0.8,0-1.4,0-1.9,0c0.5-3.7,2.5-15.5,11.1-20.5C273.4,180.2,295.6,182.3,297.5,182.4z M266.4,335h-19.8v3.8h19.8V335z M403.7,260.8
	h-21.8c-2.4,13.5-7.5,38-14.3,47.2c-2.4,3.2-5.5,5.1-9.4,5.6c-9.1,1.1-22-5.3-39.3-19.7c-12.6-10.5-22.4-16.1-29.4-19.1
	c-1.4,1.8-8.1,10.6-9.9,13c-1.5,2-3.1,3-4.9,3c-0.2,0-0.3,0-0.5,0c-3.6-0.4-6.4-5-7.3-6.8c-1.3,0.4-2.7,0.7-4.3,0.9
	c-0.7,0.1-1.5,0.2-2.2,0.2c-0.9,1.5-3.6,6-7.8,7.3c-0.8,0.3-1.6,0.4-2.4,0.4c-1.3,0-2.6-0.3-3.9-1c-6.7-3.5-13.3-9.4-15.1-11
	c-4.8,2.1-39,18.4-53,61.6c-8.8,27.1-8.7,50.3,0.3,63.6c4.1,6.1,9.6,9.5,16.1,10c13.5,0.9,39.3-12.8,52.1-20.1l-6.9-22
	c-3.9,1.6-8.6,3.1-12.8,3.1c-20.4,0-24.7-9.5-24.9-9.9l1.8-0.8c0,0.1,2.3,4.8,11.1,7.3c-0.1-2.7-0.4-8.9-0.4-14.9
	c-0.1-13.3,5.2-28.3,5.5-29l1.9,0.7c-0.1,0.2-5.4,15.3-5.4,28.3c0,6.4,0.3,13.2,0.4,15.4c2.8,0.6,6.1,1,10,1c1.1,0,2.2-0.1,3.3-0.3
	v-35.6h14.2V333h23.8v5.8h15v17.1c0.7,0.2,1.2,0.5,1.5,0.9c2.2,2.4,0.9,8.9-0.8,16.4c-0.3,1.2-0.5,2.2-0.7,3v41.6h-53v-11.2
	c-9,4.4-18.9,8.5-27.1,10.3l0.3,0.1l-6.2,34.1c39.9,0,91.6,0.1,133.7,0.2c-0.3-2.9-1.5-11.1-2.9-21.1c-2.1-14.6-5-34.5-6.9-50.7
	c-3.5-29.2-1.9-29.9-0.8-30.4c1.5-0.7,4,0.4,8.2,2.1c13.5,5.6,41.5,17.2,65-22C405.5,309.2,404.8,276.7,403.7,260.8z"/>
<path id="color_x5F_2" class="st4" d="M232.4,405.6c12.3-6.1,22.4-12.4,23.2-13l0.5-0.3v-0.6c0-1.3-0.1-2.6-0.2-3.9
	c4.7-1.1,19.9-4.8,25.5-9.1v36.9h-49L232.4,405.6L232.4,405.6z M232.4,340.8V374c7.2-1.8,14.4-6.1,14.5-6.1l0.7-0.4l0.6,0.6
	c0.1,0.1,0.9,0.9,1.9,2.5c4.5-4.2,14.4-13,17.7-12.1c0.9,0.3,1.3,0.8,1.4,1.2c0.6,1.4-0.5,3.4-1.7,5.4c-0.5,1-1.4,2.5-1.4,3.1
	c0.9-0.1,3.9-2.9,5.9-4.9c3.2-3.2,6.6-6.4,9.5-7.3v-15.2h-13v4.7h-23.8v-4.7L232.4,340.8L232.4,340.8z M246.6,343.5h19.8v-2.7h-19.8
	V343.5z"/>
<path id="color_x5F_1" class="st5" d="M330,429.9c-3.5-24.3-10.8-74.6-8.8-79c0.9-0.2,3.8,1,6.5,2.2c14,5.8,43.1,17.8,67.5-22.9
	c15.4-25.7,10.6-70,9.6-77.9c3.9,0,17.2-0.3,24.7-1.2c7.9-1,9.3-1.5,9.7-2.7c0.2-0.7-0.1-1.2-0.5-1.7h19.6v-0.1l22.8-29.3l0.6-74.8
	l-0.1,0l0.1-0.1l-95.1-0.4l-0.3,0L353,163.7h-0.7v83H383c-0.2,1.3-0.2,2.6-0.2,3.7h-1.3l-0.1,0.9c-0.1,0.4-6.4,43.2-15.5,55.6
	c-2.1,2.8-4.7,4.3-8,4.8c-8.4,1-21.2-5.5-37.8-19.3c-26.7-22.1-40.9-23.1-43.3-23.1l-0.5-11.5c8.1-1.7,14.4-5.2,18.7-10.7
	c10.2-12.6,7.1-31.4,6.1-37.5c-0.1-0.4-0.1-0.8-0.2-1.1c8.5-4.1,12.8-8.5,12.7-13.2c-0.1-7.9-12.7-13.4-15.1-14.4
	c-1.3-2.5-9.4-16.4-32.8-16.4l-0.4,0c-23.7,0.2-38.6,5.6-45.5,16.5c-7.9,12.4-13,49.4,2.5,70.1c5.6,7.4,12.9,8.9,15.5,9.2
	c0.4,4.4,0.8,7.6,1.1,9.5c0.2,1.1,0.3,2.1,0.3,2.4c0,0.3,0.2,0.7,0.5,1.3l-8.6,5.1c-1.7,0.7-39.6,16.6-54.6,63
	c-9,27.7-8.8,51.5,0.6,65.4c4.4,6.5,10.6,10.4,17.6,10.9c0.5,0,1,0.1,1.5,0.1c1.7,0,3.5-0.2,5.5-0.5l-6.2,33.8
	c-35.2,0-60.7,0.1-61.3,0.4l0.5,1.1l0.1,0.8c3.6-0.5,158.4-0.2,239.7,0l0-2c-11.6,0-25.8-0.1-41.3-0.1
	C332.7,448.4,331.6,440.5,330,429.9z M429.3,249.1c-8.7,1.1-25.4,1.2-25.6,1.2h-18.9c-0.3-3.8,1.4-9.8,2.6-10.5
	c5.3-3.2,22-3.3,23.3-2c0.2,0.5,0.3,0.8,0.2,1.1c-0.3,0.6-1.5,1-2.4,1.4c-1.2,0.4-2.4,0.9-2.8,1.8c-0.1,0.3-0.3,0.9,0,1.5l0.3,0.6
	l0.7,0c13.2,0,27.7,0.8,29.1,1.9c0.4,0.5,0.8,1,1.2,1.3c0.1,0.1,0.1,0.1,0.2,0.2C436,248.2,433.4,248.6,429.3,249.1z M479.1,216.6
	l-20.8,26.8v-78.2l21.4-20.8L479.1,216.6z M476.8,144.4l-19.9,19.3H423l15.1-19.5L476.8,144.4z M435.7,144.2l-15.2,19.5h-19.9
	l17.8-19.6L435.7,144.2z M419.9,165.7v27.6h-20.5v-27.6H419.9z M386.9,143.9l28.8,0.1l-17.8,19.6h-41.3L386.9,143.9z M354.3,244.7
	v-79h43.1v29.6h24.5v-29.6h34.4v79h-19.6c-3.2-1.9-17.8-2.3-28-2.4c0.1,0,0.2-0.1,0.3-0.1c1.4-0.5,3-1.1,3.6-2.5
	c0.3-0.8,0.3-1.7-0.2-2.7c-0.3-0.6-0.9-1-1.9-1.4c-4.5-1.4-19.2-0.6-24.2,2.4c-1.3,0.8-2.4,3.6-3,6.6H354.3z M383.3,252.4h19.6
	c0.1,1.1,0.4,3.4,0.7,6.4h-21.3C382.7,255.8,383.1,253.5,383.3,252.4z M276.9,272.3l-0.1-1.2c1,0,4.6,0.3,10.7,2.7
	c-1.9,2.5-7.9,10.4-9.6,12.6c-1.2,1.5-2.4,2.3-3.6,2.1c-2.3-0.2-4.5-3.5-5.6-5.4C277.7,279.5,276.9,272.3,276.9,272.3z M311.6,195.1
	c0.1,4.2-4.8,8.5-14,12.5c-2.9-0.1-33.7-1.1-43.4-1.1c-0.8,0-1.4,0-1.9,0c0.5-3.7,2.5-15.5,11.1-20.5c10-5.8,32.2-3.8,34.1-3.6
	C298.8,183,311.4,188.2,311.6,195.1z M221.4,181.9c6.5-10.3,20.9-15.4,43.9-15.6l0.4,0c19.2,0,27.7,10,30.2,14
	c-6-0.5-24.3-1.4-33.5,4c-9.8,5.7-11.8,19-12.2,22.5c-8.2,1.1-29.7,3.9-35.9,5.4C214.7,199.5,217.6,187.9,221.4,181.9z M223.8,249.7
	c-7.1-9.4-9.7-22.8-9.6-35.6c3.7-1,21.7-3.5,34.5-5.2c-0.3,1.1-0.1,2.5,0,3.8c0.3,2.8,0.6,6.4-1.9,9.6c-1.1,1.4-1.8,1.6-2,1.6
	c-1.1,0-2.2-3.4-2.4-6.5l0-0.5l-0.4-0.3c-0.1-0.1-3.4-2.1-6.6-2.1c-2,0-5.5,0.8-6.1,6.5c-0.5,4.2,0.2,7.4,2.2,9.6
	c1.8,2,4.2,2.6,5.6,2.8l0.7,24.6C235.1,257.7,228.7,256.1,223.8,249.7z M238.9,232.5l-0.1-1h-1c-0.3,0-3.1-0.1-5-2.2
	c-1.5-1.7-2.1-4.4-1.7-8c0.4-3.2,1.8-4.7,4.2-4.7c2,0,4.2,1.1,5.1,1.5c0.2,2.1,1.2,7.8,4.4,7.8c1.2,0,2.3-0.8,3.6-2.3
	c3.1-3.8,2.7-8,2.4-11c-0.3-2.8-0.2-3.6,0.6-4l0.3,0c0.3,0,1,0,2.5,0c10.2,0,43.2,1,43.6,1.1l0.2,0l0.2-0.1c0.3-0.1,0.5-0.2,0.8-0.4
	c0,0.2,0.1,0.4,0.1,0.6c1,6,4,24.1-5.6,36c-5.4,6.7-14.1,10.4-25.7,11h-11.5v2l11.5,0c2.3-0.1,4.4-0.3,6.5-0.7l0.7,14.5
	c0,0.3,0.8,8.4-12.7,10.2c-13.4,1.8-20.7-9.3-21.2-10.8c0-0.5-0.1-1.2-0.3-2.5c-0.3-2.1-0.7-5.5-1.2-10.2L238.9,232.5z M240.6,275
	c0.9,1.3,2.2,2.8,3.8,4.1c2.9,2.6,7.5,5.4,13.6,5.7c-1.1,1.7-3.3,4.5-6.1,5.4c-1.6,0.5-3.1,0.4-4.8-0.5c-5.9-3.1-11.8-8.2-14.1-10.3
	L240.6,275z M197.3,451.1l6.2-34.1l-0.3-0.1c8.3-1.7,18.2-5.9,27.1-10.3v11.2h53v-41.6c0.2-0.8,0.4-1.8,0.7-3c1.7-7.5,3-14,0.8-16.4
	c-0.3-0.3-0.8-0.7-1.5-0.9v-17.1h-15V333h-23.8v5.8h-14.2v35.6c-1.1,0.2-2.3,0.3-3.3,0.3c-3.9,0-7.2-0.4-10-1
	c-0.1-2.2-0.4-9-0.4-15.4c-0.1-12.9,5.3-28.1,5.4-28.3l-1.9-0.7c-0.2,0.6-5.6,15.7-5.5,29c0,6,0.3,12.2,0.4,14.9
	c-8.8-2.5-11-7.2-11.1-7.3l-1.8,0.8c0.2,0.4,4.5,9.9,24.9,9.9c7.7,0,17.4-5.2,20.1-6.7c1.6,2,6.7,9.4,6.9,21.3
	c-4.7,2.9-42.3,25.7-59.4,24.5c-6.4-0.5-12-3.9-16.1-10c-9-13.3-9.1-36.5-0.3-63.6c14-43.2,48.2-59.5,53-61.6
	c1.8,1.7,8.4,7.6,15.1,11c1.3,0.7,2.6,1,3.9,1c0.8,0,1.6-0.1,2.4-0.4c4.1-1.4,6.9-5.8,7.8-7.3c0.7,0,1.4-0.1,2.2-0.2
	c1.6-0.2,3-0.5,4.3-0.9c1,1.8,3.7,6.4,7.3,6.8c0.2,0,0.3,0,0.5,0c1.8,0,3.4-1,4.9-3c1.8-2.4,8.5-11.1,9.9-13
	c6.9,3,16.7,8.7,29.4,19.1c17.3,14.4,30.2,20.8,39.3,19.7c3.9-0.5,7-2.3,9.4-5.6c6.8-9.2,11.9-33.6,14.3-47.2h21.8
	c1.2,15.9,1.8,48.4-10.1,68.4c-23.5,39.2-51.5,27.6-65,22c-4.2-1.7-6.7-2.8-8.2-2.1c-1.1,0.5-2.7,1.2,0.8,30.4
	c1.9,16.1,4.8,36.1,6.9,50.7c1.5,10,2.6,18.2,2.9,21.1C289,451.1,237.2,451,197.3,451.1z M268.4,345.5v-4.7h13V356
	c-2.9,0.8-6.2,4.1-9.5,7.3c-2,1.9-4.9,4.8-5.9,4.9c0-0.6,0.9-2.2,1.4-3.1c1.2-2.1,2.2-4,1.7-5.4c-0.2-0.4-0.5-1-1.4-1.2
	c-3.3-1-13.2,7.9-17.7,12.1c-1-1.5-1.8-2.4-1.9-2.5l-0.6-0.6l-0.7,0.4c-0.1,0.1-7.3,4.4-14.5,6.1v-33.2h12.2v4.7L268.4,345.5
	L268.4,345.5z M266.4,340.8v2.7h-19.8v-2.7H266.4z M246.6,338.8V335h19.8v3.8H246.6z M267.1,360.3c0.1,0,0.1,0.1,0.1,0.1
	c0.2,0.5-1,2.7-1.5,3.7c-1.3,2.3-2.6,4.7-0.8,5.8c1.9,1.2,4.6-1.4,8.4-5.1c3-3,6.8-6.6,9.2-6.9c0.5-0.1,0.7,0.1,0.9,0.3
	c1.7,1.9-0.2,10.2-1.3,14.6c-0.3,1.2-0.5,2.3-0.7,3.2c-0.6,3.1-15.1,7.7-25.7,10.1c-0.8-6.2-2.8-10.8-4.6-13.8
	C257.8,365.9,265.5,359.8,267.1,360.3z M256.1,392.4v-0.6c0-1.3-0.1-2.6-0.2-3.9c4.7-1.1,19.9-4.8,25.5-9.1v36.9h-49v-10.1
	c12.3-6.1,22.4-12.4,23.2-13L256.1,392.4z M471.9,451.1h14.5v2h-14.5V451.1z M108.9,451.1h13.5v2h-13.5V451.1z M458.4,400.2
	c-0.5-31.3-10.7-35.8-11.1-36l-0.4-0.2l-0.4,0.2c-0.2,0.1-22.8,12-24.9,34.4c-1.2-3.2-2.6-6.4-4.3-9.4
	c-15.5-27.5-23.6-25.3-24.5-24.9l-0.3,0.1l-0.2,0.3c-22.5,38.3-1.4,77.9,3.7,86.5h-8.1v2h78v-2h-15
	C452.8,445.8,458.8,426.4,458.4,400.2z M398.3,451.2c-3.3-5.2-26.5-44.6-5.7-83.2l16,83.2H398.3z M410.7,451.2l-16.4-85.1
	c2.4,0.3,9.4,3.2,21.2,24c13.8,24.4,8.3,55.4,7.1,61H410.7L410.7,451.2z M424.7,451.2c1.1-5.4,4.5-26-1.1-46.5l0,0
	c-1.8-21.2,16.3-34.1,22.1-37.7L434,451.2L424.7,451.2L424.7,451.2L424.7,451.2z M436,451.2l11.6-84.3c2.5,2.3,8.4,10,8.7,33.3
	c0.4,27.2-6.2,47-7.6,51H436z M156.5,201.4l20.4,2.1c0.2,0,0.3,0,0.4,0c1.8,0,3.1-1,3.3-2.5c0.1-0.8-0.2-1.6-0.9-2.2
	c-0.6-0.5-1.4-0.9-2.2-1l-20.4-2.1c-1.9-0.2-3.6,0.9-3.7,2.5c-0.1,0.8,0.2,1.6,0.9,2.2C154.9,200.9,155.7,201.3,156.5,201.4z
	 M156.7,197.7c0.1,0,0.2,0,0.2,0l20.4,2.1c0.4,0,0.8,0.2,1.1,0.5c0.1,0.1,0.3,0.3,0.3,0.5c0,0.4-0.7,0.8-1.5,0.7l-20.4-2.1
	c-0.4,0-0.8-0.2-1.1-0.5c-0.1-0.1-0.3-0.3-0.3-0.5C155.4,198.1,155.9,197.7,156.7,197.7z M165.5,177.2l18.1,9.6
	c0.6,0.3,1.2,0.5,1.9,0.5c1.1,0,2-0.5,2.5-1.4c0.4-0.7,0.4-1.6,0-2.4c-0.3-0.7-0.9-1.3-1.7-1.7l-18.1-9.6c-0.6-0.3-1.2-0.5-1.9-0.5
	c-1.1,0-2,0.5-2.5,1.4c-0.4,0.7-0.4,1.6,0,2.4C164.1,176.2,164.7,176.8,165.5,177.2z M165.6,174c0.1-0.2,0.4-0.3,0.7-0.3
	c0.3,0,0.6,0.1,0.9,0.2l18.1,9.6c0.4,0.2,0.7,0.5,0.8,0.8c0.1,0.1,0.2,0.4,0,0.6c-0.2,0.4-1,0.4-1.7,0.1l-18.1-9.6
	c-0.4-0.2-0.7-0.5-0.8-0.8C165.5,174.5,165.4,174.2,165.6,174z M193.8,172.9c0.7,0.8,1.7,1.2,2.6,1.2c0.7,0,1.3-0.3,1.8-0.7
	c0.5-0.5,0.7-1.1,0.7-1.8c0-0.9-0.4-1.9-1.1-2.6l-14.4-14.6c-1.3-1.3-3.4-1.5-4.4-0.5c-1.1,1.1-0.9,3.1,0.4,4.4L193.8,172.9z
	 M180.4,155.2c0.1-0.1,0.3-0.1,0.4-0.1c0.4,0,0.9,0.2,1.2,0.6l14.4,14.6c0.4,0.4,0.6,0.8,0.6,1.2c0,0.1,0,0.3-0.1,0.4
	c-0.1,0.1-0.3,0.1-0.4,0.1c-0.4,0-0.9-0.2-1.2-0.6l-14.4-14.6C180.2,156.3,180.1,155.5,180.4,155.2z M246.8,396l-6.9-22.7l0.9-0.7
	l6.9,22.4L246.8,396z"/>
</svg>
